<svg xmlns="http://www.w3.org/2000/svg" width="860" height="80" viewBox="0 0 860 80">
  <defs>
    <style>
      text{font-family:"Courier New",monospace;font-size:12px}
      @keyframes fall{from{transform:translateY(-322px)}to{transform:translateY(80px)}}
    </style>
    <filter id="g1"><feGaussianBlur stdDeviation="5" result="b"/><feMerge><feMergeNode in="b"/><feMergeNode in="SourceGraphic"/></feMerge></filter>
    <filter id="g2"><feGaussianBlur stdDeviation="2" result="b"/><feMerge><feMergeNode in="b"/><feMergeNode in="SourceGraphic"/></feMerge></filter>
    <linearGradient id="vv" x1="0" y1="0" x2="0" y2="1"><stop offset="0%" stop-color="#000000" stop-opacity=".95"/><stop offset="22%" stop-color="#000000" stop-opacity="0"/><stop offset="78%" stop-color="#000000" stop-opacity="0"/><stop offset="100%" stop-color="#000000" stop-opacity=".95"/></linearGradient>
    <linearGradient id="vh" x1="0" y1="0" x2="1" y2="0"><stop offset="0%" stop-color="#000000" stop-opacity=".8"/><stop offset="10%" stop-color="#000000" stop-opacity="0"/><stop offset="90%" stop-color="#000000" stop-opacity="0"/><stop offset="100%" stop-color="#000000" stop-opacity=".8"/></linearGradient>
    <clipPath id="clip"><rect width="860" height="80"/></clipPath>
  </defs>
  <rect width="860" height="80" fill="#000000"/>
  <g clip-path="url(#clip)">
    <g style="animation:fall 2.4s -5.08s linear infinite"><text x="7" y="0" fill="#CCFFCC" opacity="1" font-weight="bold">0</text><text x="7" y="14" fill="#00FF41" opacity="1" font-weight="bold">0</text><text x="7" y="28" fill="#00FF41" opacity="1" font-weight="bold">0</text><text x="7" y="42" fill="#00CC33" opacity="0.8">1</text><text x="7" y="56" fill="#00CC33" opacity="0.8">0</text><text x="7" y="70" fill="#007720" opacity="0.45">0</text></g>
    <g style="animation:fall 2.3s -5.12s linear infinite"><text x="21" y="0" fill="#CCFFCC" opacity="1" font-weight="bold">0</text><text x="21" y="14" fill="#00FF41" opacity="1" font-weight="bold">1</text><text x="21" y="28" fill="#00FF41" opacity="1" font-weight="bold">0</text><text x="21" y="42" fill="#00CC33" opacity="0.8">0</text><text x="21" y="56" fill="#00CC33" opacity="0.8">1</text><text x="21" y="70" fill="#007720" opacity="0.45">0</text></g>
    <g style="animation:fall 4.11s -1.55s linear infinite"><text x="35" y="0" fill="#CCFFCC" opacity="1" font-weight="bold">1</text><text x="35" y="14" fill="#00FF41" opacity="1" font-weight="bold">0</text><text x="35" y="28" fill="#00FF41" opacity="1" font-weight="bold">0</text><text x="35" y="42" fill="#00CC33" opacity="0.8">1</text><text x="35" y="56" fill="#00CC33" opacity="0.8">0</text><text x="35" y="70" fill="#007720" opacity="0.45">1</text></g>
    <g style="animation:fall 3.41s 0.06s linear infinite"><text x="49" y="0" fill="#CCFFCC" opacity="1" font-weight="bold">1</text><text x="49" y="14" fill="#00FF41" opacity="1" font-weight="bold">1</text><text x="49" y="28" fill="#00FF41" opacity="1" font-weight="bold">1</text><text x="49" y="42" fill="#00CC33" opacity="0.8">0</text><text x="49" y="56" fill="#00CC33" opacity="0.8">1</text><text x="49" y="70" fill="#007720" opacity="0.45">0</text></g>
    <g style="animation:fall 4.14s -1.0s linear infinite"><text x="63" y="0" fill="#CCFFCC" opacity="1" font-weight="bold">1</text><text x="63" y="14" fill="#00FF41" opacity="1" font-weight="bold">1</text><text x="63" y="28" fill="#00FF41" opacity="1" font-weight="bold">1</text><text x="63" y="42" fill="#00CC33" opacity="0.8">1</text><text x="63" y="56" fill="#00CC33" opacity="0.8">0</text><text x="63" y="70" fill="#007720" opacity="0.45">0</text></g>
    <g style="animation:fall 2.82s -0.69s linear infinite"><text x="77" y="0" fill="#CCFFCC" opacity="1" font-weight="bold">1</text><text x="77" y="14" fill="#00FF41" opacity="1" font-weight="bold">1</text><text x="77" y="28" fill="#00FF41" opacity="1" font-weight="bold">1</text><text x="77" y="42" fill="#00CC33" opacity="0.8">0</text><text x="77" y="56" fill="#00CC33" opacity="0.8">1</text><text x="77" y="70" fill="#007720" opacity="0.45">0</text></g>
    <g style="animation:fall 4.11s -2.25s linear infinite"><text x="91" y="0" fill="#CCFFCC" opacity="1" font-weight="bold">0</text><text x="91" y="14" fill="#00FF41" opacity="1" font-weight="bold">1</text><text x="91" y="28" fill="#00FF41" opacity="1" font-weight="bold">1</text><text x="91" y="42" fill="#00CC33" opacity="0.8">1</text><text x="91" y="56" fill="#00CC33" opacity="0.8">0</text><text x="91" y="70" fill="#007720" opacity="0.45">1</text></g>
    <g style="animation:fall 3.54s -0.42s linear infinite"><text x="105" y="0" fill="#CCFFCC" opacity="1" font-weight="bold">1</text><text x="105" y="14" fill="#00FF41" opacity="1" font-weight="bold">0</text><text x="105" y="28" fill="#00FF41" opacity="1" font-weight="bold">1</text><text x="105" y="42" fill="#00CC33" opacity="0.8">0</text><text x="105" y="56" fill="#00CC33" opacity="0.8">1</text><text x="105" y="70" fill="#007720" opacity="0.45">0</text></g>
    <g style="animation:fall 2.79s -0.28s linear infinite"><text x="119" y="0" fill="#CCFFCC" opacity="1" font-weight="bold">1</text><text x="119" y="14" fill="#00FF41" opacity="1" font-weight="bold">1</text><text x="119" y="28" fill="#00FF41" opacity="1" font-weight="bold">0</text><text x="119" y="42" fill="#00CC33" opacity="0.8">0</text><text x="119" y="56" fill="#00CC33" opacity="0.8">1</text><text x="119" y="70" fill="#007720" opacity="0.45">0</text></g>
    <g style="animation:fall 3.88s -0.07s linear infinite"><text x="133" y="0" fill="#CCFFCC" opacity="1" font-weight="bold">1</text><text x="133" y="14" fill="#00FF41" opacity="1" font-weight="bold">1</text><text x="133" y="28" fill="#00FF41" opacity="1" font-weight="bold">1</text><text x="133" y="42" fill="#00CC33" opacity="0.8">0</text><text x="133" y="56" fill="#00CC33" opacity="0.8">0</text><text x="133" y="70" fill="#007720" opacity="0.45">1</text></g>
    <g style="animation:fall 2.18s -4.21s linear infinite"><text x="147" y="0" fill="#CCFFCC" opacity="1" font-weight="bold">0</text><text x="147" y="14" fill="#00FF41" opacity="1" font-weight="bold">1</text><text x="147" y="28" fill="#00FF41" opacity="1" font-weight="bold">1</text><text x="147" y="42" fill="#00CC33" opacity="0.8">1</text><text x="147" y="56" fill="#00CC33" opacity="0.8">0</text><text x="147" y="70" fill="#007720" opacity="0.45">0</text></g>
    <g style="animation:fall 3.83s -5.35s linear infinite"><text x="161" y="0" fill="#CCFFCC" opacity="1" font-weight="bold">0</text><text x="161" y="14" fill="#00FF41" opacity="1" font-weight="bold">0</text><text x="161" y="28" fill="#00FF41" opacity="1" font-weight="bold">0</text><text x="161" y="42" fill="#00CC33" opacity="0.8">1</text><text x="161" y="56" fill="#00CC33" opacity="0.8">0</text><text x="161" y="70" fill="#007720" opacity="0.45">1</text></g>
    <g style="animation:fall 2.77s -5.56s linear infinite"><text x="175" y="0" fill="#CCFFCC" opacity="1" font-weight="bold">0</text><text x="175" y="14" fill="#00FF41" opacity="1" font-weight="bold">1</text><text x="175" y="28" fill="#00FF41" opacity="1" font-weight="bold">0</text><text x="175" y="42" fill="#00CC33" opacity="0.8">1</text><text x="175" y="56" fill="#00CC33" opacity="0.8">0</text><text x="175" y="70" fill="#007720" opacity="0.45">1</text></g>
    <g style="animation:fall 2.01s -4.06s linear infinite"><text x="189" y="0" fill="#CCFFCC" opacity="1" font-weight="bold">1</text><text x="189" y="14" fill="#00FF41" opacity="1" font-weight="bold">0</text><text x="189" y="28" fill="#00FF41" opacity="1" font-weight="bold">1</text><text x="189" y="42" fill="#00CC33" opacity="0.8">1</text><text x="189" y="56" fill="#00CC33" opacity="0.8">0</text><text x="189" y="70" fill="#007720" opacity="0.45">0</text></g>
    <g style="animation:fall 1.86s -0.39s linear infinite"><text x="203" y="0" fill="#CCFFCC" opacity="1" font-weight="bold">1</text><text x="203" y="14" fill="#00FF41" opacity="1" font-weight="bold">1</text><text x="203" y="28" fill="#00FF41" opacity="1" font-weight="bold">0</text><text x="203" y="42" fill="#00CC33" opacity="0.8">1</text><text x="203" y="56" fill="#00CC33" opacity="0.8">0</text><text x="203" y="70" fill="#007720" opacity="0.45">0</text></g>
    <g style="animation:fall 1.53s -1.67s linear infinite"><text x="217" y="0" fill="#CCFFCC" opacity="1" font-weight="bold">0</text><text x="217" y="14" fill="#00FF41" opacity="1" font-weight="bold">0</text><text x="217" y="28" fill="#00FF41" opacity="1" font-weight="bold">1</text><text x="217" y="42" fill="#00CC33" opacity="0.8">0</text><text x="217" y="56" fill="#00CC33" opacity="0.8">1</text><text x="217" y="70" fill="#007720" opacity="0.45">1</text></g>
    <g style="animation:fall 1.73s -1.0s linear infinite"><text x="231" y="0" fill="#CCFFCC" opacity="1" font-weight="bold">1</text><text x="231" y="14" fill="#00FF41" opacity="1" font-weight="bold">1</text><text x="231" y="28" fill="#00FF41" opacity="1" font-weight="bold">1</text><text x="231" y="42" fill="#00CC33" opacity="0.8">1</text><text x="231" y="56" fill="#00CC33" opacity="0.8">0</text><text x="231" y="70" fill="#007720" opacity="0.45">0</text></g>
    <g style="animation:fall 3.55s -5.72s linear infinite"><text x="245" y="0" fill="#CCFFCC" opacity="1" font-weight="bold">0</text><text x="245" y="14" fill="#00FF41" opacity="1" font-weight="bold">0</text><text x="245" y="28" fill="#00FF41" opacity="1" font-weight="bold">1</text><text x="245" y="42" fill="#00CC33" opacity="0.8">1</text><text x="245" y="56" fill="#00CC33" opacity="0.8">0</text><text x="245" y="70" fill="#007720" opacity="0.45">1</text></g>
    <g style="animation:fall 2.96s -5.97s linear infinite"><text x="259" y="0" fill="#CCFFCC" opacity="1" font-weight="bold">1</text><text x="259" y="14" fill="#00FF41" opacity="1" font-weight="bold">0</text><text x="259" y="28" fill="#00FF41" opacity="1" font-weight="bold">0</text><text x="259" y="42" fill="#00CC33" opacity="0.8">1</text><text x="259" y="56" fill="#00CC33" opacity="0.8">0</text><text x="259" y="70" fill="#007720" opacity="0.45">1</text></g>
    <g style="animation:fall 1.66s -5.74s linear infinite"><text x="273" y="0" fill="#CCFFCC" opacity="1" font-weight="bold">1</text><text x="273" y="14" fill="#00FF41" opacity="1" font-weight="bold">0</text><text x="273" y="28" fill="#00FF41" opacity="1" font-weight="bold">1</text><text x="273" y="42" fill="#00CC33" opacity="0.8">1</text><text x="273" y="56" fill="#00CC33" opacity="0.8">0</text><text x="273" y="70" fill="#007720" opacity="0.45">0</text></g>
    <g style="animation:fall 4.02s -5.53s linear infinite"><text x="287" y="0" fill="#CCFFCC" opacity="1" font-weight="bold">1</text><text x="287" y="14" fill="#00FF41" opacity="1" font-weight="bold">0</text><text x="287" y="28" fill="#00FF41" opacity="1" font-weight="bold">0</text><text x="287" y="42" fill="#00CC33" opacity="0.8">0</text><text x="287" y="56" fill="#00CC33" opacity="0.8">1</text><text x="287" y="70" fill="#007720" opacity="0.45">1</text></g>
    <g style="animation:fall 4.48s -2.65s linear infinite"><text x="301" y="0" fill="#CCFFCC" opacity="1" font-weight="bold">1</text><text x="301" y="14" fill="#00FF41" opacity="1" font-weight="bold">0</text><text x="301" y="28" fill="#00FF41" opacity="1" font-weight="bold">1</text><text x="301" y="42" fill="#00CC33" opacity="0.8">0</text><text x="301" y="56" fill="#00CC33" opacity="0.8">1</text><text x="301" y="70" fill="#007720" opacity="0.45">1</text></g>
    <g style="animation:fall 4.18s -3.03s linear infinite"><text x="315" y="0" fill="#CCFFCC" opacity="1" font-weight="bold">0</text><text x="315" y="14" fill="#00FF41" opacity="1" font-weight="bold">0</text><text x="315" y="28" fill="#00FF41" opacity="1" font-weight="bold">0</text><text x="315" y="42" fill="#00CC33" opacity="0.8">1</text><text x="315" y="56" fill="#00CC33" opacity="0.8">1</text><text x="315" y="70" fill="#007720" opacity="0.45">0</text></g>
    <g style="animation:fall 2.55s -3.6s linear infinite"><text x="329" y="0" fill="#CCFFCC" opacity="1" font-weight="bold">0</text><text x="329" y="14" fill="#00FF41" opacity="1" font-weight="bold">1</text><text x="329" y="28" fill="#00FF41" opacity="1" font-weight="bold">1</text><text x="329" y="42" fill="#00CC33" opacity="0.8">1</text><text x="329" y="56" fill="#00CC33" opacity="0.8">0</text><text x="329" y="70" fill="#007720" opacity="0.45">1</text></g>
    <g style="animation:fall 2.8s -1.41s linear infinite"><text x="343" y="0" fill="#CCFFCC" opacity="1" font-weight="bold">1</text><text x="343" y="14" fill="#00FF41" opacity="1" font-weight="bold">1</text><text x="343" y="28" fill="#00FF41" opacity="1" font-weight="bold">0</text><text x="343" y="42" fill="#00CC33" opacity="0.8">0</text><text x="343" y="56" fill="#00CC33" opacity="0.8">1</text><text x="343" y="70" fill="#007720" opacity="0.45">1</text></g>
    <g style="animation:fall 3.11s -3.24s linear infinite"><text x="357" y="0" fill="#CCFFCC" opacity="1" font-weight="bold">1</text><text x="357" y="14" fill="#00FF41" opacity="1" font-weight="bold">1</text><text x="357" y="28" fill="#00FF41" opacity="1" font-weight="bold">1</text><text x="357" y="42" fill="#00CC33" opacity="0.8">0</text><text x="357" y="56" fill="#00CC33" opacity="0.8">0</text><text x="357" y="70" fill="#007720" opacity="0.45">0</text></g>
    <g style="animation:fall 3.73s -2.96s linear infinite"><text x="371" y="0" fill="#CCFFCC" opacity="1" font-weight="bold">1</text><text x="371" y="14" fill="#00FF41" opacity="1" font-weight="bold">0</text><text x="371" y="28" fill="#00FF41" opacity="1" font-weight="bold">0</text><text x="371" y="42" fill="#00CC33" opacity="0.8">0</text><text x="371" y="56" fill="#00CC33" opacity="0.8">1</text><text x="371" y="70" fill="#007720" opacity="0.45">1</text></g>
    <g style="animation:fall 3.83s -4.63s linear infinite"><text x="385" y="0" fill="#CCFFCC" opacity="1" font-weight="bold">0</text><text x="385" y="14" fill="#00FF41" opacity="1" font-weight="bold">0</text><text x="385" y="28" fill="#00FF41" opacity="1" font-weight="bold">1</text><text x="385" y="42" fill="#00CC33" opacity="0.8">0</text><text x="385" y="56" fill="#00CC33" opacity="0.8">0</text><text x="385" y="70" fill="#007720" opacity="0.45">0</text></g>
    <g style="animation:fall 3.07s 0.08s linear infinite"><text x="399" y="0" fill="#CCFFCC" opacity="1" font-weight="bold">1</text><text x="399" y="14" fill="#00FF41" opacity="1" font-weight="bold">1</text><text x="399" y="28" fill="#00FF41" opacity="1" font-weight="bold">0</text><text x="399" y="42" fill="#00CC33" opacity="0.8">1</text><text x="399" y="56" fill="#00CC33" opacity="0.8">0</text><text x="399" y="70" fill="#007720" opacity="0.45">1</text></g>
    <g style="animation:fall 3.63s -3.79s linear infinite"><text x="413" y="0" fill="#CCFFCC" opacity="1" font-weight="bold">1</text><text x="413" y="14" fill="#00FF41" opacity="1" font-weight="bold">0</text><text x="413" y="28" fill="#00FF41" opacity="1" font-weight="bold">0</text><text x="413" y="42" fill="#00CC33" opacity="0.8">1</text><text x="413" y="56" fill="#00CC33" opacity="0.8">0</text><text x="413" y="70" fill="#007720" opacity="0.45">1</text></g>
    <g style="animation:fall 4.26s -5.67s linear infinite"><text x="427" y="0" fill="#CCFFCC" opacity="1" font-weight="bold">0</text><text x="427" y="14" fill="#00FF41" opacity="1" font-weight="bold">0</text><text x="427" y="28" fill="#00FF41" opacity="1" font-weight="bold">1</text><text x="427" y="42" fill="#00CC33" opacity="0.8">0</text><text x="427" y="56" fill="#00CC33" opacity="0.8">1</text><text x="427" y="70" fill="#007720" opacity="0.45">1</text></g>
    <g style="animation:fall 1.74s -5.52s linear infinite"><text x="441" y="0" fill="#CCFFCC" opacity="1" font-weight="bold">0</text><text x="441" y="14" fill="#00FF41" opacity="1" font-weight="bold">1</text><text x="441" y="28" fill="#00FF41" opacity="1" font-weight="bold">1</text><text x="441" y="42" fill="#00CC33" opacity="0.8">0</text><text x="441" y="56" fill="#00CC33" opacity="0.8">1</text><text x="441" y="70" fill="#007720" opacity="0.45">1</text></g>
    <g style="animation:fall 1.53s -5.79s linear infinite"><text x="455" y="0" fill="#CCFFCC" opacity="1" font-weight="bold">0</text><text x="455" y="14" fill="#00FF41" opacity="1" font-weight="bold">0</text><text x="455" y="28" fill="#00FF41" opacity="1" font-weight="bold">1</text><text x="455" y="42" fill="#00CC33" opacity="0.8">0</text><text x="455" y="56" fill="#00CC33" opacity="0.8">1</text><text x="455" y="70" fill="#007720" opacity="0.45">1</text></g>
    <g style="animation:fall 4.23s -1.03s linear infinite"><text x="469" y="0" fill="#CCFFCC" opacity="1" font-weight="bold">0</text><text x="469" y="14" fill="#00FF41" opacity="1" font-weight="bold">1</text><text x="469" y="28" fill="#00FF41" opacity="1" font-weight="bold">0</text><text x="469" y="42" fill="#00CC33" opacity="0.8">1</text><text x="469" y="56" fill="#00CC33" opacity="0.8">0</text><text x="469" y="70" fill="#007720" opacity="0.45">0</text></g>
    <g style="animation:fall 4.14s 0.03s linear infinite"><text x="483" y="0" fill="#CCFFCC" opacity="1" font-weight="bold">1</text><text x="483" y="14" fill="#00FF41" opacity="1" font-weight="bold">0</text><text x="483" y="28" fill="#00FF41" opacity="1" font-weight="bold">0</text><text x="483" y="42" fill="#00CC33" opacity="0.8">0</text><text x="483" y="56" fill="#00CC33" opacity="0.8">1</text><text x="483" y="70" fill="#007720" opacity="0.45">0</text></g>
    <g style="animation:fall 2.17s -4.5s linear infinite"><text x="497" y="0" fill="#CCFFCC" opacity="1" font-weight="bold">0</text><text x="497" y="14" fill="#00FF41" opacity="1" font-weight="bold">1</text><text x="497" y="28" fill="#00FF41" opacity="1" font-weight="bold">0</text><text x="497" y="42" fill="#00CC33" opacity="0.8">1</text><text x="497" y="56" fill="#00CC33" opacity="0.8">0</text><text x="497" y="70" fill="#007720" opacity="0.45">0</text></g>
    <g style="animation:fall 1.99s -0.06s linear infinite"><text x="511" y="0" fill="#CCFFCC" opacity="1" font-weight="bold">0</text><text x="511" y="14" fill="#00FF41" opacity="1" font-weight="bold">0</text><text x="511" y="28" fill="#00FF41" opacity="1" font-weight="bold">1</text><text x="511" y="42" fill="#00CC33" opacity="0.8">0</text><text x="511" y="56" fill="#00CC33" opacity="0.8">1</text><text x="511" y="70" fill="#007720" opacity="0.45">0</text></g>
    <g style="animation:fall 1.97s -4.1s linear infinite"><text x="525" y="0" fill="#CCFFCC" opacity="1" font-weight="bold">0</text><text x="525" y="14" fill="#00FF41" opacity="1" font-weight="bold">0</text><text x="525" y="28" fill="#00FF41" opacity="1" font-weight="bold">1</text><text x="525" y="42" fill="#00CC33" opacity="0.8">1</text><text x="525" y="56" fill="#00CC33" opacity="0.8">0</text><text x="525" y="70" fill="#007720" opacity="0.45">1</text></g>
    <g style="animation:fall 4.08s 0.08s linear infinite"><text x="539" y="0" fill="#CCFFCC" opacity="1" font-weight="bold">1</text><text x="539" y="14" fill="#00FF41" opacity="1" font-weight="bold">0</text><text x="539" y="28" fill="#00FF41" opacity="1" font-weight="bold">1</text><text x="539" y="42" fill="#00CC33" opacity="0.8">1</text><text x="539" y="56" fill="#00CC33" opacity="0.8">0</text><text x="539" y="70" fill="#007720" opacity="0.45">1</text></g>
    <g style="animation:fall 1.85s -4.27s linear infinite"><text x="553" y="0" fill="#CCFFCC" opacity="1" font-weight="bold">0</text><text x="553" y="14" fill="#00FF41" opacity="1" font-weight="bold">0</text><text x="553" y="28" fill="#00FF41" opacity="1" font-weight="bold">0</text><text x="553" y="42" fill="#00CC33" opacity="0.8">1</text><text x="553" y="56" fill="#00CC33" opacity="0.8">1</text><text x="553" y="70" fill="#007720" opacity="0.45">0</text></g>
    <g style="animation:fall 4.31s -5.05s linear infinite"><text x="567" y="0" fill="#CCFFCC" opacity="1" font-weight="bold">1</text><text x="567" y="14" fill="#00FF41" opacity="1" font-weight="bold">0</text><text x="567" y="28" fill="#00FF41" opacity="1" font-weight="bold">0</text><text x="567" y="42" fill="#00CC33" opacity="0.8">0</text><text x="567" y="56" fill="#00CC33" opacity="0.8">0</text><text x="567" y="70" fill="#007720" opacity="0.45">1</text></g>
    <g style="animation:fall 3.32s -3.01s linear infinite"><text x="581" y="0" fill="#CCFFCC" opacity="1" font-weight="bold">0</text><text x="581" y="14" fill="#00FF41" opacity="1" font-weight="bold">1</text><text x="581" y="28" fill="#00FF41" opacity="1" font-weight="bold">1</text><text x="581" y="42" fill="#00CC33" opacity="0.8">0</text><text x="581" y="56" fill="#00CC33" opacity="0.8">1</text><text x="581" y="70" fill="#007720" opacity="0.45">0</text></g>
    <g style="animation:fall 1.48s -5.6s linear infinite"><text x="595" y="0" fill="#CCFFCC" opacity="1" font-weight="bold">0</text><text x="595" y="14" fill="#00FF41" opacity="1" font-weight="bold">0</text><text x="595" y="28" fill="#00FF41" opacity="1" font-weight="bold">0</text><text x="595" y="42" fill="#00CC33" opacity="0.8">1</text><text x="595" y="56" fill="#00CC33" opacity="0.8">1</text><text x="595" y="70" fill="#007720" opacity="0.45">1</text></g>
    <g style="animation:fall 2.02s -3.54s linear infinite"><text x="609" y="0" fill="#CCFFCC" opacity="1" font-weight="bold">1</text><text x="609" y="14" fill="#00FF41" opacity="1" font-weight="bold">1</text><text x="609" y="28" fill="#00FF41" opacity="1" font-weight="bold">1</text><text x="609" y="42" fill="#00CC33" opacity="0.8">0</text><text x="609" y="56" fill="#00CC33" opacity="0.8">1</text><text x="609" y="70" fill="#007720" opacity="0.45">1</text></g>
    <g style="animation:fall 3.31s -0.16s linear infinite"><text x="623" y="0" fill="#CCFFCC" opacity="1" font-weight="bold">1</text><text x="623" y="14" fill="#00FF41" opacity="1" font-weight="bold">1</text><text x="623" y="28" fill="#00FF41" opacity="1" font-weight="bold">1</text><text x="623" y="42" fill="#00CC33" opacity="0.8">1</text><text x="623" y="56" fill="#00CC33" opacity="0.8">0</text><text x="623" y="70" fill="#007720" opacity="0.45">0</text></g>
    <g style="animation:fall 3.02s -2.74s linear infinite"><text x="637" y="0" fill="#CCFFCC" opacity="1" font-weight="bold">1</text><text x="637" y="14" fill="#00FF41" opacity="1" font-weight="bold">1</text><text x="637" y="28" fill="#00FF41" opacity="1" font-weight="bold">0</text><text x="637" y="42" fill="#00CC33" opacity="0.8">0</text><text x="637" y="56" fill="#00CC33" opacity="0.8">1</text><text x="637" y="70" fill="#007720" opacity="0.45">0</text></g>
    <g style="animation:fall 2.17s -0.49s linear infinite"><text x="651" y="0" fill="#CCFFCC" opacity="1" font-weight="bold">0</text><text x="651" y="14" fill="#00FF41" opacity="1" font-weight="bold">0</text><text x="651" y="28" fill="#00FF41" opacity="1" font-weight="bold">0</text><text x="651" y="42" fill="#00CC33" opacity="0.8">1</text><text x="651" y="56" fill="#00CC33" opacity="0.8">0</text><text x="651" y="70" fill="#007720" opacity="0.45">0</text></g>
    <g style="animation:fall 4.02s -1.45s linear infinite"><text x="665" y="0" fill="#CCFFCC" opacity="1" font-weight="bold">1</text><text x="665" y="14" fill="#00FF41" opacity="1" font-weight="bold">0</text><text x="665" y="28" fill="#00FF41" opacity="1" font-weight="bold">1</text><text x="665" y="42" fill="#00CC33" opacity="0.8">0</text><text x="665" y="56" fill="#00CC33" opacity="0.8">0</text><text x="665" y="70" fill="#007720" opacity="0.45">1</text></g>
    <g style="animation:fall 4.01s -4.76s linear infinite"><text x="679" y="0" fill="#CCFFCC" opacity="1" font-weight="bold">0</text><text x="679" y="14" fill="#00FF41" opacity="1" font-weight="bold">1</text><text x="679" y="28" fill="#00FF41" opacity="1" font-weight="bold">0</text><text x="679" y="42" fill="#00CC33" opacity="0.8">1</text><text x="679" y="56" fill="#00CC33" opacity="0.8">1</text><text x="679" y="70" fill="#007720" opacity="0.45">0</text></g>
    <g style="animation:fall 3.33s -5.01s linear infinite"><text x="693" y="0" fill="#CCFFCC" opacity="1" font-weight="bold">0</text><text x="693" y="14" fill="#00FF41" opacity="1" font-weight="bold">0</text><text x="693" y="28" fill="#00FF41" opacity="1" font-weight="bold">0</text><text x="693" y="42" fill="#00CC33" opacity="0.8">0</text><text x="693" y="56" fill="#00CC33" opacity="0.8">0</text><text x="693" y="70" fill="#007720" opacity="0.45">1</text></g>
    <g style="animation:fall 1.71s -5.4s linear infinite"><text x="707" y="0" fill="#CCFFCC" opacity="1" font-weight="bold">0</text><text x="707" y="14" fill="#00FF41" opacity="1" font-weight="bold">1</text><text x="707" y="28" fill="#00FF41" opacity="1" font-weight="bold">1</text><text x="707" y="42" fill="#00CC33" opacity="0.8">1</text><text x="707" y="56" fill="#00CC33" opacity="0.8">1</text><text x="707" y="70" fill="#007720" opacity="0.45">1</text></g>
    <g style="animation:fall 3.07s -4.68s linear infinite"><text x="721" y="0" fill="#CCFFCC" opacity="1" font-weight="bold">0</text><text x="721" y="14" fill="#00FF41" opacity="1" font-weight="bold">1</text><text x="721" y="28" fill="#00FF41" opacity="1" font-weight="bold">0</text><text x="721" y="42" fill="#00CC33" opacity="0.8">1</text><text x="721" y="56" fill="#00CC33" opacity="0.8">0</text><text x="721" y="70" fill="#007720" opacity="0.45">1</text></g>
    <g style="animation:fall 1.74s -2.12s linear infinite"><text x="735" y="0" fill="#CCFFCC" opacity="1" font-weight="bold">0</text><text x="735" y="14" fill="#00FF41" opacity="1" font-weight="bold">1</text><text x="735" y="28" fill="#00FF41" opacity="1" font-weight="bold">0</text><text x="735" y="42" fill="#00CC33" opacity="0.8">1</text><text x="735" y="56" fill="#00CC33" opacity="0.8">1</text><text x="735" y="70" fill="#007720" opacity="0.45">0</text></g>
    <g style="animation:fall 3.2s -2.82s linear infinite"><text x="749" y="0" fill="#CCFFCC" opacity="1" font-weight="bold">1</text><text x="749" y="14" fill="#00FF41" opacity="1" font-weight="bold">1</text><text x="749" y="28" fill="#00FF41" opacity="1" font-weight="bold">0</text><text x="749" y="42" fill="#00CC33" opacity="0.8">1</text><text x="749" y="56" fill="#00CC33" opacity="0.8">1</text><text x="749" y="70" fill="#007720" opacity="0.45">0</text></g>
    <g style="animation:fall 2.2s -0.17s linear infinite"><text x="763" y="0" fill="#CCFFCC" opacity="1" font-weight="bold">0</text><text x="763" y="14" fill="#00FF41" opacity="1" font-weight="bold">0</text><text x="763" y="28" fill="#00FF41" opacity="1" font-weight="bold">0</text><text x="763" y="42" fill="#00CC33" opacity="0.8">0</text><text x="763" y="56" fill="#00CC33" opacity="0.8">1</text><text x="763" y="70" fill="#007720" opacity="0.45">1</text></g>
    <g style="animation:fall 2.95s -2.14s linear infinite"><text x="777" y="0" fill="#CCFFCC" opacity="1" font-weight="bold">1</text><text x="777" y="14" fill="#00FF41" opacity="1" font-weight="bold">0</text><text x="777" y="28" fill="#00FF41" opacity="1" font-weight="bold">0</text><text x="777" y="42" fill="#00CC33" opacity="0.8">1</text><text x="777" y="56" fill="#00CC33" opacity="0.8">1</text><text x="777" y="70" fill="#007720" opacity="0.45">0</text></g>
    <g style="animation:fall 4.03s -3.06s linear infinite"><text x="791" y="0" fill="#CCFFCC" opacity="1" font-weight="bold">0</text><text x="791" y="14" fill="#00FF41" opacity="1" font-weight="bold">1</text><text x="791" y="28" fill="#00FF41" opacity="1" font-weight="bold">0</text><text x="791" y="42" fill="#00CC33" opacity="0.8">1</text><text x="791" y="56" fill="#00CC33" opacity="0.8">0</text><text x="791" y="70" fill="#007720" opacity="0.45">1</text></g>
    <g style="animation:fall 2.05s -1.83s linear infinite"><text x="805" y="0" fill="#CCFFCC" opacity="1" font-weight="bold">1</text><text x="805" y="14" fill="#00FF41" opacity="1" font-weight="bold">0</text><text x="805" y="28" fill="#00FF41" opacity="1" font-weight="bold">1</text><text x="805" y="42" fill="#00CC33" opacity="0.8">0</text><text x="805" y="56" fill="#00CC33" opacity="0.8">1</text><text x="805" y="70" fill="#007720" opacity="0.45">1</text></g>
    <g style="animation:fall 1.91s -0.33s linear infinite"><text x="819" y="0" fill="#CCFFCC" opacity="1" font-weight="bold">0</text><text x="819" y="14" fill="#00FF41" opacity="1" font-weight="bold">0</text><text x="819" y="28" fill="#00FF41" opacity="1" font-weight="bold">1</text><text x="819" y="42" fill="#00CC33" opacity="0.8">0</text><text x="819" y="56" fill="#00CC33" opacity="0.8">1</text><text x="819" y="70" fill="#007720" opacity="0.45">0</text></g>
    <g style="animation:fall 3.43s -4.05s linear infinite"><text x="833" y="0" fill="#CCFFCC" opacity="1" font-weight="bold">1</text><text x="833" y="14" fill="#00FF41" opacity="1" font-weight="bold">1</text><text x="833" y="28" fill="#00FF41" opacity="1" font-weight="bold">0</text><text x="833" y="42" fill="#00CC33" opacity="0.8">1</text><text x="833" y="56" fill="#00CC33" opacity="0.8">0</text><text x="833" y="70" fill="#007720" opacity="0.45">0</text></g>
    <g style="animation:fall 2.47s -5.07s linear infinite"><text x="847" y="0" fill="#CCFFCC" opacity="1" font-weight="bold">1</text><text x="847" y="14" fill="#00FF41" opacity="1" font-weight="bold">0</text><text x="847" y="28" fill="#00FF41" opacity="1" font-weight="bold">0</text><text x="847" y="42" fill="#00CC33" opacity="0.8">1</text><text x="847" y="56" fill="#00CC33" opacity="0.8">0</text><text x="847" y="70" fill="#007720" opacity="0.45">1</text></g>
  </g>
  <rect width="860" height="80" fill="url(#vv)"/>
  <rect width="860" height="80" fill="url(#vh)"/>
  <rect x="160" y="12" width="540" height="56" fill="#000000" opacity="0.58" rx="5"/>
  <text x="433" y="47" text-anchor="middle" font-family="Courier New,monospace" font-size="34" font-weight="bold" fill="#001800" opacity="0.7">SUGUMARAN</text>
  <text x="430" y="45" text-anchor="middle" font-family="Courier New,monospace" font-size="34" font-weight="bold" fill="#00FF41" filter="url(#g1)">SUGUMARAN</text>
  <text x="430" y="62" text-anchor="middle" font-family="Courier New,monospace" font-size="10" letter-spacing="3" fill="#00BB22" filter="url(#g2)">&gt;_ SOFTWARE DEVELOPER  |  AI-POWERED WEB APPS  |  PYTHON · REACT</text>
</svg>
